<svg id="Capa_1" enable-background="new 0 0 475.293 475.293" height="512" viewBox="0 0 475.293 475.293" width="512" xmlns="http://www.w3.org/2000/svg"><path d="m401.029 0h-297.059c-24.571 0-44.558 19.988-44.558 44.559v44.559h-29.706v29.706h29.706v103.97h-29.706v29.706h29.706v103.97h-29.706v29.706h29.706v44.559c0 24.571 19.988 44.559 44.559 44.559h297.058c24.571 0 44.559-19.988 44.559-44.559v-386.176c-.001-24.571-19.988-44.559-44.559-44.559zm14.853 430.734c0 8.195-6.658 14.853-14.853 14.853h-297.059c-8.195 0-14.853-6.658-14.853-14.853v-386.175c0-8.195 6.658-14.853 14.853-14.853h297.058c8.195 0 14.853 6.658 14.853 14.853v386.175z"/><path d="m329.651 268.397c-47.257-20.8-107.046-20.8-154.302 0-16.289 7.18-26.819 23.295-26.819 41.049v47.025h207.94v-47.025c0-17.754-10.531-33.869-26.819-41.049zm-2.887 58.367h-148.529v-17.319c0-5.99 3.568-11.43 9.094-13.867 39.743-17.493 90.597-17.493 130.34 0 5.526 2.437 9.094 7.876 9.094 13.867.001 0 .001 17.319.001 17.319z"/><path d="m252.5 237.647c32.766 0 59.412-26.645 59.412-59.412 0-32.766-26.645-59.412-59.412-59.412-32.766 0-59.412 26.645-59.412 59.412 0 32.766 26.645 59.412 59.412 59.412zm0-89.118c16.376 0 29.706 13.33 29.706 29.706s-13.33 29.706-29.706 29.706-29.706-13.33-29.706-29.706 13.33-29.706 29.706-29.706z"/></svg>